<svg width="457" height="450" viewBox="0 0 457 450" fill="none" xmlns="http://www.w3.org/2000/svg">
<rect width="457" height="450" rx="100" fill="white"/>
<path d="M277.206 112.635C277.206 124.334 281.926 135.553 290.327 143.826C298.728 152.098 310.122 156.745 322.002 156.745C333.883 156.745 345.277 152.098 353.678 143.826C362.079 135.553 366.798 124.334 366.798 112.635C366.798 100.937 362.079 89.7171 353.678 81.4449C345.277 73.1727 333.883 68.5254 322.002 68.5254C310.122 68.5254 298.728 73.1727 290.327 81.4449C281.926 89.7171 277.206 100.937 277.206 112.635ZM318.803 246.603C315.659 238.183 315.659 228.936 318.803 220.515L325.33 202.619C326.473 199.458 326.972 196.106 326.8 192.755C326.627 189.404 325.786 186.119 324.324 183.088C322.862 180.057 320.808 177.339 318.28 175.09C315.751 172.84 312.798 171.103 309.587 169.978C306.377 168.853 302.973 168.361 299.57 168.531C296.167 168.701 292.831 169.529 289.752 170.968C286.674 172.408 283.914 174.43 281.63 176.92C279.345 179.41 277.581 182.318 276.438 185.479L221.147 336.713C218.842 342.997 219.165 349.925 222.045 355.975C224.925 362.025 230.126 366.701 236.506 368.976C239.296 369.974 242.241 370.485 245.209 370.489C250.47 370.486 255.602 368.888 259.907 365.912C264.213 362.935 267.482 358.724 269.271 353.853L283.478 314.91C283.715 314.303 284.138 313.783 284.688 313.422C285.238 313.061 285.889 312.876 286.549 312.894C287.188 312.902 287.81 313.098 288.335 313.458C288.86 313.817 289.263 314.323 289.493 314.91L304.468 354.105C306.249 358.956 309.499 363.153 313.779 366.128C318.059 369.103 323.163 370.713 328.402 370.741C331.466 370.755 334.506 370.2 337.361 369.102C343.701 366.754 348.838 362.026 351.645 355.955C354.452 349.883 354.7 342.964 352.336 336.713L318.803 246.603Z" fill="#1DA3AD"/>
<path d="M123.556 149.229C123.556 159.291 127.615 168.941 134.841 176.056C142.066 183.17 151.866 187.168 162.085 187.168C172.303 187.168 182.103 183.17 189.329 176.056C196.554 168.941 200.614 159.291 200.614 149.229C200.614 139.167 196.554 129.517 189.329 122.402C182.103 115.287 172.303 111.29 162.085 111.29C151.866 111.29 142.066 115.287 134.841 122.402C127.615 129.517 123.556 139.167 123.556 149.229ZM159.333 264.454C156.629 257.212 156.629 249.259 159.333 242.016L164.947 226.624C165.93 223.905 166.36 221.022 166.211 218.14C166.063 215.257 165.339 212.432 164.082 209.825C162.825 207.218 161.058 204.881 158.883 202.946C156.708 201.011 154.168 199.517 151.407 198.549C148.646 197.581 145.718 197.158 142.791 197.304C139.864 197.451 136.994 198.163 134.347 199.401C131.699 200.639 129.325 202.379 127.361 204.52C125.396 206.662 123.878 209.163 122.895 211.882L75.3398 341.958C73.3569 347.363 73.6345 353.321 76.1115 358.525C78.5885 363.728 83.0623 367.75 88.5497 369.707C90.9494 370.565 93.4824 371.005 96.0353 371.008C100.56 371.006 104.974 369.631 108.677 367.071C112.38 364.511 115.192 360.89 116.731 356.7L128.95 323.205C129.154 322.683 129.518 322.235 129.991 321.925C130.464 321.614 131.024 321.456 131.592 321.471C132.142 321.478 132.677 321.647 133.128 321.956C133.579 322.265 133.926 322.7 134.124 323.205L147.004 356.916C148.535 361.089 151.331 364.698 155.012 367.257C158.693 369.816 163.083 371.201 167.589 371.225C170.225 371.237 172.839 370.759 175.295 369.816C180.748 367.795 185.166 363.729 187.58 358.507C189.995 353.285 190.208 347.334 188.174 341.958L159.333 264.454Z" fill="#FFD896"/>
</svg>
